<svg xmlns="http://www.w3.org/2000/svg" viewBox="0 0 64 64">
  <rect width="64" height="64" rx="12" fill="#0f0605"/>
  <ellipse cx="32" cy="13" rx="15" ry="4" fill="none" stroke="#fffaf2" stroke-width="2.4"/>
  <path d="M21 33c1.6-7.4 6.3-11 11-11s9.4 3.6 11 11H21Z" fill="#fffaf2"/>
  <path d="M18 38l5-3 4 3 5-3 5 3 4-3 5 3" fill="none" stroke="#fffaf2" stroke-width="2.2" stroke-linecap="round" stroke-linejoin="round"/>
  <rect x="15" y="40" width="34" height="3.6" rx="1.8" fill="#fffaf2"/>
  <path d="M19 46h5v9c0 1.7 1.3 3 3 3h10c1.7 0 3-1.3 3-3v-9h5v9c0 3.3-2.7 6-6 6H25c-3.3 0-6-2.7-6-6v-9Z" fill="#fffaf2"/>
</svg>
